<mxfile host="Electron" modified="2023-11-02T13:59:05.479Z" agent="Mozilla/5.0 (Windows NT 10.0; Win64; x64) AppleWebKit/537.36 (KHTML, like Gecko) draw.io/22.0.3 Chrome/114.0.5735.289 Electron/25.8.4 Safari/537.36" etag="-YboykQVz4SWHRKK9Zbj" version="22.0.3" type="device">
  <diagram name="player" id="8-S-rEmojeFJIfRgZgqw">
    <mxGraphModel dx="616" dy="506" grid="1" gridSize="10" guides="1" tooltips="1" connect="1" arrows="1" fold="1" page="1" pageScale="1" pageWidth="1920" pageHeight="1200" math="0" shadow="0">
      <root>
        <mxCell id="0" />
        <mxCell id="1" parent="0" />
        <mxCell id="PedRCIHE-KsFYln30PVd-14" style="edgeStyle=orthogonalEdgeStyle;rounded=1;orthogonalLoop=1;jettySize=auto;html=1;exitX=0.5;exitY=1;exitDx=0;exitDy=0;entryX=0.5;entryY=0;entryDx=0;entryDy=0;labelBackgroundColor=default;strokeColor=default;align=center;verticalAlign=middle;fontFamily=Lucida Console;fontSize=14;fontColor=default;endArrow=block;endFill=0;dashed=1;" edge="1" parent="1" source="PedRCIHE-KsFYln30PVd-2" target="PedRCIHE-KsFYln30PVd-8">
          <mxGeometry relative="1" as="geometry" />
        </mxCell>
        <mxCell id="PedRCIHE-KsFYln30PVd-2" value="&lt;font style=&quot;font-size: 14px;&quot;&gt;&lt;font style=&quot;font-size: 14px;&quot;&gt;Root_p&lt;/font&gt;&lt;br style=&quot;font-size: 14px;&quot;&gt;&lt;/font&gt;" style="rounded=1;whiteSpace=wrap;html=1;fontSize=14;arcSize=38;fontFamily=Lucida Console;" vertex="1" parent="1">
          <mxGeometry x="360" y="40" width="120" height="40" as="geometry" />
        </mxCell>
        <mxCell id="PedRCIHE-KsFYln30PVd-4" value="&lt;font style=&quot;font-size: 14px;&quot;&gt;&lt;font style=&quot;font-size: 14px;&quot;&gt;Free&lt;/font&gt;&lt;br style=&quot;font-size: 14px;&quot;&gt;&lt;/font&gt;" style="rounded=1;whiteSpace=wrap;html=1;fontSize=14;arcSize=38;fontFamily=Lucida Console;verticalAlign=middle;" vertex="1" parent="1">
          <mxGeometry x="280" y="280" width="120" height="40" as="geometry" />
        </mxCell>
        <mxCell id="PedRCIHE-KsFYln30PVd-6" value="&lt;font style=&quot;font-size: 14px;&quot;&gt;&lt;font style=&quot;font-size: 14px;&quot;&gt;Controlled&lt;/font&gt;&lt;br style=&quot;font-size: 14px;&quot;&gt;&lt;/font&gt;" style="rounded=1;whiteSpace=wrap;html=1;fontSize=14;arcSize=38;fontFamily=Lucida Console;" vertex="1" parent="1">
          <mxGeometry x="480" y="280" width="120" height="40" as="geometry" />
        </mxCell>
        <mxCell id="PedRCIHE-KsFYln30PVd-17" style="edgeStyle=orthogonalEdgeStyle;shape=connector;rounded=1;orthogonalLoop=1;jettySize=auto;html=1;exitX=0.5;exitY=1;exitDx=0;exitDy=0;dashed=1;labelBackgroundColor=default;strokeColor=default;align=center;verticalAlign=middle;fontFamily=Lucida Console;fontSize=14;fontColor=default;endArrow=block;endFill=0;" edge="1" parent="1" source="PedRCIHE-KsFYln30PVd-8" target="PedRCIHE-KsFYln30PVd-4">
          <mxGeometry relative="1" as="geometry" />
        </mxCell>
        <mxCell id="PedRCIHE-KsFYln30PVd-18" style="edgeStyle=orthogonalEdgeStyle;shape=connector;rounded=1;orthogonalLoop=1;jettySize=auto;html=1;exitX=0.5;exitY=1;exitDx=0;exitDy=0;entryX=0.5;entryY=0;entryDx=0;entryDy=0;dashed=1;labelBackgroundColor=default;strokeColor=default;align=center;verticalAlign=middle;fontFamily=Lucida Console;fontSize=14;fontColor=default;endArrow=block;endFill=0;" edge="1" parent="1" source="PedRCIHE-KsFYln30PVd-8" target="PedRCIHE-KsFYln30PVd-6">
          <mxGeometry relative="1" as="geometry" />
        </mxCell>
        <mxCell id="PedRCIHE-KsFYln30PVd-8" value="&lt;font style=&quot;font-size: 14px;&quot;&gt;&lt;font style=&quot;font-size: 14px;&quot;&gt;Posture_c&lt;/font&gt;&lt;br style=&quot;font-size: 14px;&quot;&gt;&lt;/font&gt;" style="rounded=1;whiteSpace=wrap;html=1;fontSize=14;arcSize=38;fontFamily=Lucida Console;" vertex="1" parent="1">
          <mxGeometry x="360" y="160" width="120" height="40" as="geometry" />
        </mxCell>
      </root>
    </mxGraphModel>
  </diagram>
</mxfile>
